<svg xmlns="http://www.w3.org/2000/svg" width="24.667" height="42.287" viewBox="0 0 24.667 42.287"><defs><style>.a{fill:#5c5e64;}</style></defs><g transform="translate(-106.666)"><g transform="translate(106.666)"><g transform="translate(0)"><path class="a" d="M125.167,0H112.833a6.174,6.174,0,0,0-6.167,6.167V36.12a6.174,6.174,0,0,0,6.167,6.167h12.334a6.174,6.174,0,0,0,6.167-6.167V6.167A6.174,6.174,0,0,0,125.167,0Zm4.4,36.12a4.411,4.411,0,0,1-4.4,4.4H112.833a4.411,4.411,0,0,1-4.4-4.4V6.167a4.411,4.411,0,0,1,4.4-4.4h12.334a4.411,4.411,0,0,1,4.4,4.4V36.12Z" transform="translate(-106.666)"/></g></g><g transform="translate(106.666 7.048)"><g transform="translate(0)"><path class="a" d="M130.452,85.333H107.547a.881.881,0,0,0,0,1.762h22.905a.881.881,0,0,0,0-1.762Z" transform="translate(-106.666 -85.333)"/></g></g><g transform="translate(106.666 31.715)"><g transform="translate(0)"><path class="a" d="M130.452,384H107.547a.881.881,0,1,0,0,1.762h22.905a.881.881,0,0,0,0-1.762Z" transform="translate(-106.666 -384)"/></g></g><g transform="translate(117.238 35.239)"><circle class="a" cx="1.762" cy="1.762" r="1.762"/></g><g transform="translate(115.476 3.524)"><g transform="translate(0)"><path class="a" d="M219.5,42.667h-5.286a.881.881,0,1,0,0,1.762H219.5a.881.881,0,1,0,0-1.762Z" transform="translate(-213.333 -42.667)"/></g></g><g transform="translate(124.312 3.524)"><g transform="translate(0)"><path class="a" d="M321.21,42.667h-.018a.874.874,0,0,0-.872.881.885.885,0,1,0,.89-.881Z" transform="translate(-320.32 -42.667)"/></g></g></g></svg>